<?xml version="1.0" encoding="UTF-8" standalone="no"?>
<!-- Created with Inkscape (http://www.inkscape.org/) -->

<svg
   xmlns:dc="http://purl.org/dc/elements/1.1/"
   xmlns:cc="http://creativecommons.org/ns#"
   xmlns:rdf="http://www.w3.org/1999/02/22-rdf-syntax-ns#"
   xmlns:svg="http://www.w3.org/2000/svg"
   xmlns="http://www.w3.org/2000/svg"
   xmlns:sodipodi="http://sodipodi.sourceforge.net/DTD/sodipodi-0.dtd"
   xmlns:inkscape="http://www.inkscape.org/namespaces/inkscape"
   id="svg2"
   version="1.1"
   inkscape:version="0.91 r13725"
   xml:space="preserve"
   width="150"
   height="150"
   viewBox="0 0 150 150"
   sodipodi:docname="Scalingo_MongoDB.svg"><metadata
     id="metadata8"><rdf:RDF><cc:Work
         rdf:about=""><dc:format>image/svg+xml</dc:format><dc:type
           rdf:resource="http://purl.org/dc/dcmitype/StillImage" /><dc:title></dc:title></cc:Work></rdf:RDF></metadata><defs
     id="defs6"><clipPath
       clipPathUnits="userSpaceOnUse"
       id="clipPath18"><path
         d="m 325.988,28.6797 -29.961,9.9219 c 0,0 3.821,151.6324 -50.867,162.2464 -36.062,41.789 5.551,1784.902 136.559,5.976 0,0 -44.84,-22.515 -53.328,-60.742 -8.485,-38.262 -2.403,-117.4023 -2.403,-117.4023 z"
         id="path20"
         inkscape:connector-curvature="0" /></clipPath><linearGradient
       x1="0"
       y1="0"
       x2="1"
       y2="0"
       gradientUnits="userSpaceOnUse"
       gradientTransform="matrix(344.394,-116.194,-104.815,-309.067,127.805,575.998)"
       spreadMethod="pad"
       id="linearGradient22"><stop
         style="stop-opacity:1;stop-color:#929669"
         offset="0"
         id="stop24" /><stop
         style="stop-opacity:1;stop-color:#929669"
         offset="0.230769"
         id="stop26" /><stop
         style="stop-opacity:1;stop-color:#fdfcf1"
         offset="1"
         id="stop28" /></linearGradient><clipPath
       clipPathUnits="userSpaceOnUse"
       id="clipPath36"><path
         d="m 342.141,175.109 c 0,0 260.343,171.469 199.351,527.575 -58.742,258.718 -197.418,343.766 -212.32,376.236 -16.406,22.98 -32.93,63.71 -32.93,63.71 l 11.074,-720.86 c 0,0 -22.906,-220.11 34.825,-246.661 z"
         id="path38"
         inkscape:connector-curvature="0" /></clipPath><linearGradient
       x1="0"
       y1="0"
       x2="1"
       y2="0"
       gradientUnits="userSpaceOnUse"
       gradientTransform="matrix(241.166,-936.211,-1007.33,-161.502,253.975,1135.85)"
       spreadMethod="pad"
       id="linearGradient40"><stop
         style="stop-opacity:1;stop-color:#45aa3a"
         offset="0"
         id="stop42" /><stop
         style="stop-opacity:1;stop-color:#3d9439"
         offset="1"
         id="stop44" /></linearGradient><clipPath
       clipPathUnits="userSpaceOnUse"
       id="clipPath52"><path
         d="m 280.785,165.527 c 0,0 -244.2108,166.598 -230.16,460.543 14.0547,293.95 186.539,438.48 220.133,464.7 21.715,23.16 22.613,32.08 24.293,54.91 15.226,-32.69 12.695,-488.418 14.308,-541.684 6.258,-207.351 -11.484,-399.328 -28.574,-438.469 z"
         id="path54"
         inkscape:connector-curvature="0" /></clipPath><linearGradient
       x1="0"
       y1="0"
       x2="1"
       y2="0"
       gradientUnits="userSpaceOnUse"
       gradientTransform="matrix(422.094,95.9041,131.897,-394.109,24.9593,595.858)"
       spreadMethod="pad"
       id="linearGradient56"><stop
         style="stop-opacity:1;stop-color:#41a83b"
         offset="0"
         id="stop58" /><stop
         style="stop-opacity:1;stop-color:#5ebc44"
         offset="1"
         id="stop60" /></linearGradient></defs><sodipodi:namedview
     pagecolor="#ffffff"
     bordercolor="#666666"
     borderopacity="1"
     objecttolerance="10"
     gridtolerance="10"
     guidetolerance="10"
     inkscape:pageopacity="0"
     inkscape:pageshadow="2"
     inkscape:window-width="1920"
     inkscape:window-height="1163"
     id="namedview4"
     showgrid="false"
     fit-margin-top="0"
     fit-margin-left="0"
     fit-margin-right="0"
     fit-margin-bottom="0"
     inkscape:zoom="3.2641576"
     inkscape:cx="69.169277"
     inkscape:cy="31.17764"
     inkscape:window-x="1920"
     inkscape:window-y="0"
     inkscape:window-maximized="1"
     inkscape:current-layer="g12" /><g
     id="g10"
     inkscape:groupmode="layer"
     inkscape:label="ink_ext_XXXXXX"
     transform="matrix(1.25,0,0,-1.25,36.848846,147.45781)"><g
       id="g12"
       transform="scale(0.1,0.1)"><rect
         style="fill:#412f1f;fill-opacity:1"
         id="rect3406"
         width="1200"
         height="1200"
         x="-294.79077"
         y="-1179.6625"
         transform="scale(1,-1)" /><g
         id="g14"><g
           id="g16"
           clip-path="url(#clipPath18)"><path
             d="m 325.988,28.6797 -29.961,9.9219 c 0,0 3.821,151.6324 -50.867,162.2464 -36.062,41.789 5.551,1784.902 136.559,5.976 0,0 -44.84,-22.515 -53.328,-60.742 -8.485,-38.262 -2.403,-117.4023 -2.403,-117.4023"
             style="fill:url(#linearGradient22);fill-opacity:1;fill-rule:nonzero;stroke:none"
             id="path30"
             inkscape:connector-curvature="0" /></g></g><g
         id="g32"><g
           id="g34"
           clip-path="url(#clipPath36)"><path
             d="m 342.141,175.109 c 0,0 260.343,171.469 199.351,527.575 -58.742,258.718 -197.418,343.766 -212.32,376.236 -16.406,22.98 -32.93,63.71 -32.93,63.71 l 11.074,-720.86 c 0,0 -22.906,-220.11 34.825,-246.661"
             style="fill:url(#linearGradient40);fill-opacity:1;fill-rule:nonzero;stroke:none"
             id="path46"
             inkscape:connector-curvature="0" /></g></g><g
         id="g48"><g
           id="g50"
           clip-path="url(#clipPath52)"><path
             d="m 280.785,165.527 c 0,0 -244.2108,166.598 -230.16,460.543 14.0547,293.95 186.539,438.48 220.133,464.7 21.715,23.16 22.613,32.08 24.293,54.91 15.226,-32.69 12.695,-488.418 14.308,-541.684 6.258,-207.351 -11.484,-399.328 -28.574,-438.469"
             style="fill:url(#linearGradient56);fill-opacity:1;fill-rule:nonzero;stroke:none"
             id="path62"
             inkscape:connector-curvature="0" /></g></g></g></g></svg>